<?xml version="1.0" encoding="UTF-8"?>
<svg xmlns="http://www.w3.org/2000/svg" width="512" height="384" viewBox="0 0 512 384" role="img" aria-label="Transparency and drag illustration">
  <defs>
    <pattern id="checker" width="20" height="20" patternUnits="userSpaceOnUse">
      <rect width="20" height="20" fill="#d9d9e6"/>
      <rect width="10" height="10" fill="#c8c8d9"/>
      <rect x="10" y="10" width="10" height="10" fill="#c8c8d9"/>
    </pattern>
    <linearGradient id="g3" x1="0" y1="0" x2="1" y2="1">
      <stop offset="0" stop-color="#7a39ff"/>
      <stop offset="1" stop-color="#a78bff"/>
    </linearGradient>
  </defs>
  <rect x="24" y="28" width="464" height="288" rx="18" fill="url(#checker)"/>
  <g opacity=".9">
    <rect x="76" y="72" width="360" height="200" rx="12" fill="#0f0f12" stroke="url(#g3)" stroke-width="6"/>
    <rect x="92" y="92" width="328" height="40" rx="8" fill="#ffffff" opacity=".15"/>
  </g>
  <g fill="#7a39ff" opacity=".95">
    <path d="M256 164l18 18-18 18-18-18 18-18z"/>
    <path d="M256 220l18 18-18 18-18-18 18-18z"/>
    <path d="M212 192l18 18-18 18-18-18 18-18z"/>
    <path d="M300 192l18 18-18 18-18-18 18-18z"/>
  </g>
  <text x="256" y="332" text-anchor="middle" font-family="Inter, system-ui, Arial" font-size="14" fill="#000" opacity=".7">Transparency &amp; Drag</text>
</svg>
